<svg width="137" height="35" viewBox="0 0 137 35" fill="none" xmlns="http://www.w3.org/2000/svg">
<path d="M0 17.6609C0 11.9352 4.09767 8.40299 10.6529 8.40299H17.4325V0H25.9249V26.3993H10.616C4.09767 26.3993 0 23.0154 0 17.6619V17.6609ZM8.97695 17.3633C8.97695 19.5568 10.3179 20.7094 12.8882 20.7094H17.4325V13.9794H12.925C10.3548 13.9794 8.97695 15.1319 8.97695 17.3633ZM80.8115 17.3391C80.8115 23.0648 76.7139 26.597 70.1586 26.597H63.379V35H54.8867V8.60173H70.1955C76.7139 8.60173 80.8115 11.9856 80.8115 17.3391ZM71.8346 17.6367C71.8346 15.4432 70.4936 14.2906 67.9234 14.2906H63.379V21.0206H67.8865C70.4567 21.0206 71.8346 19.8681 71.8346 17.6367ZM136.409 17.3391C136.409 23.0648 132.312 26.597 125.756 26.597H118.977V35H110.484V8.60173H125.794C132.313 8.60173 136.41 11.9856 136.41 17.3391H136.409ZM127.432 17.6367C127.432 15.4432 126.091 14.2906 123.521 14.2906H118.977V21.0206H123.484C126.054 21.0206 127.432 19.8681 127.432 17.6367ZM83.288 17.4338C83.288 11.0382 88.4286 7.61747 95.5062 7.61747C102.584 7.61747 107.724 11.0382 107.724 17.4338C107.724 23.8293 102.584 27.3236 95.5062 27.3236C88.4286 27.3236 83.288 23.8283 83.288 17.4338ZM99.4543 17.4338C99.4543 14.3106 97.8901 12.7491 95.5062 12.7491C93.1224 12.7491 91.5582 14.3106 91.5582 17.4338C91.5582 20.5569 93.1224 22.1931 95.5062 22.1931C97.8901 22.1931 99.4543 20.5201 99.4543 17.4338ZM52.1194 17.8796C52.1194 11.484 47.9849 7.61747 40.4974 7.61747C33.3081 7.61747 28.689 11.484 28.689 17.5452C28.689 23.6064 33.2701 27.3236 40.9072 27.3236C45.7127 27.3236 49.586 25.5391 51.6349 22.639L45.5516 20.4265C44.4929 21.5674 42.9107 22.2078 41.2358 22.2078C38.714 22.2078 36.9696 21.1952 36.5114 19.4864C36.4808 19.3749 36.4566 19.2614 36.4377 19.1446H52.1194V17.8807V17.8796ZM36.4377 15.1655C36.6336 13.0572 38.0799 11.769 40.5838 11.769C43.0877 11.769 44.534 13.135 44.534 15.1655H36.4377Z" fill="#FF2300"/>
</svg>
